<svg xmlns="http://www.w3.org/2000/svg" viewBox="0 0 64 64" role="img" aria-label="JSON">
  <rect width="64" height="64" rx="16" fill="#13231f"/>
  <path d="M22 20c-4 0-6 2-6 6v4c0 2-1 3-3 3 2 0 3 1 3 3v4c0 4 2 6 6 6" fill="none" stroke="#70e0a8" stroke-width="4" stroke-linecap="round" stroke-linejoin="round"/>
  <path d="M42 20c4 0 6 2 6 6v4c0 2 1 3 3 3-2 0-3 1-3 3v4c0 4-2 6-6 6" fill="none" stroke="#70e0a8" stroke-width="4" stroke-linecap="round" stroke-linejoin="round"/>
  <circle cx="27" cy="33" r="2.5" fill="#f2d37c"/>
  <circle cx="37" cy="33" r="2.5" fill="#f2d37c"/>
</svg>
